<svg id="Layer_2" data-name="Layer 2" xmlns="http://www.w3.org/2000/svg" viewBox="0 0 729.18 185.13">
  <g>
    <g>
      <path d="M102.51,327.07l-9.39,59.42H64.23l27.25-171.7h61.77c31,0,51.2,19.5,51.2,49.56,0,37.11-26.3,62.72-65.06,62.72Zm13.63-86.21L106.51,301h31c23.26,0,37.11-12.44,37.11-34.05,0-16.21-10.57-26.08-28.65-26.08Z" transform="translate(-64.23 -212.91)" fill="#fff"/>
      <path d="M292.3,295.59H282c-20,0-34.53,11.28-38.05,33.59l-9.16,57.31H207.27l18.32-116H251.2l-.94,17.85c6.34-12.21,18.55-20,33.59-20a57.3,57.3,0,0,1,12.68,1.4Z" transform="translate(-64.23 -212.91)" fill="#fff"/>
      <path d="M315.79,270.46h27.48L325,386.49H297.47Zm3-37.82c0-10.33,9.16-19.73,19.73-19.73a14,14,0,0,1,14.33,14.33c0,10.1-9.4,19.73-19.73,19.73A14,14,0,0,1,318.84,232.64Z" transform="translate(-64.23 -212.91)" fill="#fff"/>
      <path d="M420.78,267.41c30.53,0,49.09,16.67,50,45.09H442.86c-.94-13.15-9.63-20.67-23.73-20.67-20,0-35,19-35,43.93,0,18.08,9.63,29.12,25.83,29.12,12.92,0,23.73-8,28.42-20.9h28.19c-7.28,27.48-30.06,45.33-58,45.33-32.41,0-52.61-19.73-52.61-51.91C356,297.71,384.14,267.41,420.78,267.41Z" transform="translate(-64.23 -212.91)" fill="#fff"/>
      <path d="M482.55,337.4c0-39.69,28.19-70,64.83-70,34.29,0,53.79,23.72,48.38,58.72l-1.41,8.69-85.26.23v.71c0,19.73,9.63,30.77,27.48,30.77,13.16,0,23.73-6.35,28.66-17.39h27.25c-8,24.2-31,40.17-57.32,40.17C502.75,389.31,482.55,369.58,482.55,337.4Zm29.6-20.2h57.54c2.59-16.44-7-27.25-24-27.25C530.47,290,517.55,301,512.15,317.2Z" transform="translate(-64.23 -212.91)" fill="#fff"/>
      <path d="M619.49,214.79h31.24l16,32.18c4.46,8.93,9.86,22.32,14.33,34.29l49.56-66.47h35l-68.58,86,41.81,85.73H706.16L691.6,356.9c-3.76-7.76-11-25.37-15.51-36.65l-50.26,66.24H589.89l70.47-85.73Z" transform="translate(-64.23 -212.91)" fill="#fff"/>
    </g>
    <circle cx="707.09" cy="163.05" r="22.08" fill="#fff"/>
  </g>
</svg>
